<svg width="20" height="18" fill="none" xmlns="http://www.w3.org/2000/svg"><g clip-path="url(#a)"><path d="M17.944 4.416c.013.194.013.388.013.582 0 5.911-4.124 12.722-11.663 12.722-2.322 0-4.48-.733-6.294-2.007.33.042.647.055.99.055 1.916 0 3.68-.706 5.089-1.91-1.802-.042-3.312-1.33-3.833-3.101.254.041.508.069.774.069.368 0 .736-.055 1.079-.152C2.221 10.258.812 8.459.812 6.285V6.23c.546.332 1.18.54 1.853.567C1.56 5.994.838 4.624.838 3.073c0-.83.203-1.592.558-2.256 2.018 2.713 5.05 4.485 8.452 4.68a5.489 5.489 0 01-.102-1.025c0-2.465 1.828-4.472 4.1-4.472 1.18 0 2.245.54 2.994 1.412a7.673 7.673 0 002.602-1.08 4.411 4.411 0 01-1.802 2.464A7.685 7.685 0 0020 2.104a9.29 9.29 0 01-2.056 2.312z" fill="#000"/></g><defs><clipPath id="a"><path fill="#fff" d="M0 0H20V18H0z"/></clipPath></defs></svg>